<svg id="Layer_1" data-name="Layer 1" xmlns="http://www.w3.org/2000/svg" xmlns:xlink="http://www.w3.org/1999/xlink" viewBox="0 0 512 512"><defs><style>.cls-1{fill:url(#linear-gradient);}.cls-2{fill:url(#linear-gradient-2);}.cls-3{fill:url(#linear-gradient-3);}.cls-4{fill:url(#linear-gradient-4);}.cls-5{fill:url(#linear-gradient-5);}.cls-6{fill:url(#linear-gradient-6);}</style><linearGradient id="linear-gradient" x1="341.36" y1="41.9" x2="341.36" y2="465.76" gradientUnits="userSpaceOnUse"><stop offset="0" stop-color="#f7941d"/><stop offset="1" stop-color="#ed1c24"/></linearGradient><linearGradient id="linear-gradient-2" x1="341.8" y1="50" x2="341.8" y2="429.31" gradientUnits="userSpaceOnUse"><stop offset="0" stop-color="#ed1c24"/><stop offset="1" stop-color="#f7941d"/></linearGradient><linearGradient id="linear-gradient-3" x1="134.75" y1="254.18" x2="337.47" y2="254.18" gradientTransform="translate(-40.67 26.83) rotate(8.81)" xlink:href="#linear-gradient-2"/><linearGradient id="linear-gradient-4" x1="191.18" y1="144.28" x2="191.18" y2="220.09" xlink:href="#linear-gradient"/><linearGradient id="linear-gradient-5" x1="57.27" y1="375.08" x2="267.38" y2="375.08" xlink:href="#linear-gradient"/><linearGradient id="linear-gradient-6" x1="341.99" y1="242.34" x2="341.99" y2="26.6" gradientUnits="userSpaceOnUse"><stop offset="0" stop-color="#d1d3d4"/><stop offset="1" stop-color="#fff"/></linearGradient></defs><path class="cls-1" d="M226.18,509.44s118.18,1.49,138.91-104.79c22.48-100.77-81.43-143-100.83-223.15C252,130.93,264.38,43.94,365.06,0c0,0-26.43,69.89,52.8,192.79C511.66,338.28,429.9,536.86,226.18,509.44Z"/><path class="cls-2" d="M227.06,509.55c9.74,1.13,98,9.08,157.15-65.2,64.9-81.49-17.26-192.27-47.35-263.69C304,102.67,328.51,26.57,365.05,0c-.31.87-25.93,70.65,52.81,192.78C511.52,338.07,430.14,536.28,227.06,509.55Z"/><path class="cls-3" d="M204.61,290.89c39.6,0,60.07-28,62.77-48.34-32.61-1.17-83.08-30.75-97.52-52l-22.21-61.31S69.51,172.64,56,283.54C44.31,481.14,214.42,507.61,214.42,507.61c-95-50.5-87.51-139-87.51-139-15,4.4-25.25,16-25.25,16,8.65-35.19,38.56-53.31,38.56-53.31-17.43-7.57-41.12,1.62-41.12,1.62C109.2,319,150.74,290.83,204.61,290.89Z"/><path class="cls-4" d="M212.49,219.42c-17-9.51-31.79-21.12-38.67-30.95l-3.95-10.91c20.53-24.69,36.55-35.65,36.55-35.65Z"/><path class="cls-5" d="M99.1,332.92c.52-.19,23.88-9.1,41.12-1.61,0,0-29.9,18.13-38.56,53.31,0,0,10.22-11.6,25.25-16,0,0-7.47,88.49,87.5,139,0,0-136-21.16-156.41-167-7.11-50.87,38.71-93,88.57-81.42l1.53.36c102.58,24.85,119.28-17,119.28-17-2.7,20.39-23.17,48.38-62.77,48.34C150.75,290.82,109.22,319,99.1,332.92Z"/><path class="cls-6" d="M353.58,176.93c7.24,25.14-2.09,54.41-2.09,54.41-8.62-24.35-30.69-40.77-30.69-40.77,2.83,19.81-.1,38.28-3.67,51.77-16.56-20.76-31-41.17-36.75-64.76-2.48-10.26-19.73-93.84,62.14-146.75a2.56,2.56,0,0,1-.55-1.59,2.66,2.66,0,0,1,5.31,0,2.68,2.68,0,0,1-2.68,2.69h-.25c-.1,34.94,10,93,59.56,169.94,1,1.49,1.93,3,2.88,4.53C374.11,199.58,353.58,176.93,353.58,176.93Z"/></svg>